<svg xmlns="http://www.w3.org/2000/svg" xmlns:xlink="http://www.w3.org/1999/xlink" width="900" zoomAndPan="magnify" viewBox="0 0 675 225" height="300" preserveAspectRatio="xMidYMid meet" version="1.0"><defs><g/><clipPath id="e9942691cf"><path d="M 26.148438 25.777344 L 199.398438 25.777344 L 199.398438 199.027344 L 26.148438 199.027344 Z M 26.148438 25.777344 " clip-rule="nonzero"/></clipPath><clipPath id="7aa66b0c16"><path d="M 52.355469 51.984375 L 199.355469 51.984375 L 199.355469 198.984375 L 52.355469 198.984375 Z M 52.355469 51.984375 " clip-rule="nonzero"/></clipPath><clipPath id="6cb92c2dbe"><path d="M 22.5 22.5 L 32.261719 22.5 L 32.261719 32.261719 L 22.5 32.261719 Z M 22.5 22.5 " clip-rule="nonzero"/></clipPath><clipPath id="83d225aec8"><path d="M 22.5 22.5 L 32.25 22.5 L 32.25 32.25 L 22.5 32.25 Z M 22.5 22.5 " clip-rule="nonzero"/></clipPath><clipPath id="fdf2ae4f4c"><path d="M 193.058594 22.5 L 202.820312 22.5 L 202.820312 32.261719 L 193.058594 32.261719 Z M 193.058594 22.5 " clip-rule="nonzero"/></clipPath><clipPath id="889b244041"><path d="M 193.058594 22.5 L 202.808594 22.5 L 202.808594 32.25 L 193.058594 32.25 Z M 193.058594 22.5 " clip-rule="nonzero"/></clipPath><clipPath id="c9249fe12d"><path d="M 22.5 192.738281 L 32.261719 192.738281 L 32.261719 202.5 L 22.5 202.5 Z M 22.5 192.738281 " clip-rule="nonzero"/></clipPath><clipPath id="08083b37bd"><path d="M 22.5 192.738281 L 32.25 192.738281 L 32.25 202.488281 L 22.5 202.488281 Z M 22.5 192.738281 " clip-rule="nonzero"/></clipPath><clipPath id="b7fa53205c"><path d="M 193.058594 192.738281 L 202.820312 192.738281 L 202.820312 202.5 L 193.058594 202.5 Z M 193.058594 192.738281 " clip-rule="nonzero"/></clipPath><clipPath id="51812dce22"><path d="M 193.058594 192.738281 L 202.808594 192.738281 L 202.808594 202.488281 L 193.058594 202.488281 Z M 193.058594 192.738281 " clip-rule="nonzero"/></clipPath><clipPath id="9ed7365dcd"><path d="M 49.144531 48.707031 L 58.910156 48.707031 L 58.910156 58.46875 L 49.144531 58.46875 Z M 49.144531 48.707031 " clip-rule="nonzero"/></clipPath><clipPath id="1630705260"><path d="M 49.144531 48.707031 L 58.894531 48.707031 L 58.894531 58.457031 L 49.144531 58.457031 Z M 49.144531 48.707031 " clip-rule="nonzero"/></clipPath></defs><g clip-path="url(#e9942691cf)"><path fill="#ffffff" d="M 26.148438 22.777344 L 44.144531 22.777344 L 44.144531 28.777344 L 26.148438 28.777344 Z M 47.144531 22.777344 L 65.140625 22.777344 L 65.140625 28.777344 L 47.144531 28.777344 Z M 68.140625 22.777344 L 86.136719 22.777344 L 86.136719 28.777344 L 68.140625 28.777344 Z M 89.132812 22.777344 L 107.132812 22.777344 L 107.132812 28.777344 L 89.132812 28.777344 Z M 110.128906 22.777344 L 128.125 22.777344 L 128.125 28.777344 L 110.128906 28.777344 Z M 131.125 22.777344 L 149.121094 22.777344 L 149.121094 28.777344 L 131.125 28.777344 Z M 152.121094 22.777344 L 170.117188 22.777344 L 170.117188 28.777344 L 152.121094 28.777344 Z M 173.117188 22.777344 L 191.113281 22.777344 L 191.113281 28.777344 L 173.117188 28.777344 Z M 194.113281 22.777344 L 202.398438 22.777344 L 202.398438 38.488281 L 196.398438 38.488281 L 196.398438 25.777344 L 199.398438 25.777344 L 199.398438 28.777344 L 194.113281 28.777344 Z M 202.398438 41.488281 L 202.398438 59.484375 L 196.398438 59.484375 L 196.398438 41.488281 Z M 202.398438 62.484375 L 202.398438 80.480469 L 196.398438 80.480469 L 196.398438 62.484375 Z M 202.398438 83.480469 L 202.398438 101.476562 L 196.398438 101.476562 L 196.398438 83.480469 Z M 202.398438 104.476562 L 202.398438 122.472656 L 196.398438 122.472656 L 196.398438 104.476562 Z M 202.398438 125.472656 L 202.398438 143.46875 L 196.398438 143.46875 L 196.398438 125.472656 Z M 202.398438 146.46875 L 202.398438 164.464844 L 196.398438 164.464844 L 196.398438 146.46875 Z M 202.398438 167.464844 L 202.398438 185.460938 L 196.398438 185.460938 L 196.398438 167.464844 Z M 202.398438 188.460938 L 202.398438 202.027344 L 191.96875 202.027344 L 191.96875 196.027344 L 199.398438 196.027344 L 199.398438 199.027344 L 196.398438 199.027344 L 196.398438 188.460938 Z M 188.96875 202.027344 L 170.972656 202.027344 L 170.972656 196.027344 L 188.96875 196.027344 Z M 167.972656 202.027344 L 149.976562 202.027344 L 149.976562 196.027344 L 167.972656 196.027344 Z M 146.976562 202.027344 L 128.980469 202.027344 L 128.980469 196.027344 L 146.976562 196.027344 Z M 125.984375 202.027344 L 107.984375 202.027344 L 107.984375 196.027344 L 125.984375 196.027344 Z M 104.988281 202.027344 L 86.992188 202.027344 L 86.992188 196.027344 L 104.988281 196.027344 Z M 83.992188 202.027344 L 65.996094 202.027344 L 65.996094 196.027344 L 83.992188 196.027344 Z M 62.996094 202.027344 L 45 202.027344 L 45 196.027344 L 62.996094 196.027344 Z M 42 202.027344 L 23.148438 202.027344 L 23.148438 196.882812 L 29.148438 196.882812 L 29.148438 199.027344 L 26.148438 199.027344 L 26.148438 196.027344 L 42 196.027344 Z M 23.148438 193.882812 L 23.148438 175.886719 L 29.148438 175.886719 L 29.148438 193.882812 Z M 23.148438 172.886719 L 23.148438 154.890625 L 29.148438 154.890625 L 29.148438 172.886719 Z M 23.148438 151.890625 L 23.148438 133.894531 L 29.148438 133.894531 L 29.148438 151.890625 Z M 23.148438 130.894531 L 23.148438 112.898438 L 29.148438 112.898438 L 29.148438 130.894531 Z M 23.148438 109.902344 L 23.148438 91.90625 L 29.148438 91.90625 L 29.148438 109.902344 Z M 23.148438 88.90625 L 23.148438 70.910156 L 29.148438 70.910156 L 29.148438 88.90625 Z M 23.148438 67.910156 L 23.148438 49.914062 L 29.148438 49.914062 L 29.148438 67.910156 Z M 23.148438 46.914062 L 23.148438 28.917969 L 29.148438 28.917969 L 29.148438 46.914062 Z M 23.148438 25.917969 L 23.148438 25.777344 L 29.148438 25.777344 L 29.148438 25.917969 Z M 23.148438 25.917969 " fill-opacity="1" fill-rule="nonzero"/></g><g clip-path="url(#7aa66b0c16)"><path fill="#ffffff" d="M 52.355469 48.984375 L 70.34375 48.984375 L 70.34375 54.980469 L 52.355469 54.980469 Z M 73.34375 48.984375 L 91.335938 48.984375 L 91.335938 54.980469 L 73.34375 54.980469 Z M 94.332031 48.984375 L 112.324219 48.984375 L 112.324219 54.980469 L 94.332031 54.980469 Z M 115.324219 48.984375 L 133.316406 48.984375 L 133.316406 54.980469 L 115.324219 54.980469 Z M 136.3125 48.984375 L 154.304688 48.984375 L 154.304688 54.980469 L 136.3125 54.980469 Z M 157.304688 48.984375 L 175.296875 48.984375 L 175.296875 54.980469 L 157.304688 54.980469 Z M 178.292969 48.984375 L 196.285156 48.984375 L 196.285156 54.980469 L 178.292969 54.980469 Z M 199.285156 48.984375 L 202.351562 48.984375 L 202.351562 69.90625 L 196.355469 69.90625 L 196.355469 51.984375 L 199.355469 51.984375 L 199.355469 54.980469 L 199.285156 54.980469 Z M 202.351562 72.902344 L 202.351562 90.894531 L 196.355469 90.894531 L 196.355469 72.902344 Z M 202.351562 93.894531 L 202.351562 111.882812 L 196.355469 111.882812 L 196.355469 93.894531 Z M 202.351562 114.882812 L 202.351562 132.875 L 196.355469 132.875 L 196.355469 114.882812 Z M 202.351562 135.875 L 202.351562 153.863281 L 196.355469 153.863281 L 196.355469 135.875 Z M 202.351562 156.863281 L 202.351562 174.855469 L 196.355469 174.855469 L 196.355469 156.863281 Z M 202.351562 177.851562 L 202.351562 195.84375 L 196.355469 195.84375 L 196.355469 177.851562 Z M 202.351562 198.84375 L 202.351562 201.980469 L 181.503906 201.980469 L 181.503906 195.984375 L 199.355469 195.984375 L 199.355469 198.984375 L 196.355469 198.984375 L 196.355469 198.84375 Z M 178.503906 201.980469 L 160.511719 201.980469 L 160.511719 195.984375 L 178.503906 195.984375 Z M 157.515625 201.980469 L 139.523438 201.980469 L 139.523438 195.984375 L 157.515625 195.984375 Z M 136.523438 201.980469 L 118.53125 201.980469 L 118.53125 195.984375 L 136.523438 195.984375 Z M 115.535156 201.980469 L 97.542969 201.980469 L 97.542969 195.984375 L 115.535156 195.984375 Z M 94.542969 201.980469 L 76.554688 201.980469 L 76.554688 195.984375 L 94.542969 195.984375 Z M 73.554688 201.980469 L 55.5625 201.980469 L 55.5625 195.984375 L 73.554688 195.984375 Z M 52.566406 201.980469 L 49.355469 201.980469 L 49.355469 181.203125 L 55.351562 181.203125 L 55.351562 198.984375 L 52.355469 198.984375 L 52.355469 195.984375 L 52.566406 195.984375 Z M 49.355469 178.203125 L 49.355469 160.214844 L 55.351562 160.214844 L 55.351562 178.203125 Z M 49.355469 157.214844 L 49.355469 139.222656 L 55.351562 139.222656 L 55.351562 157.214844 Z M 49.355469 136.222656 L 49.355469 118.234375 L 55.351562 118.234375 L 55.351562 136.222656 Z M 49.355469 115.234375 L 49.355469 97.242188 L 55.351562 97.242188 L 55.351562 115.234375 Z M 49.355469 94.246094 L 49.355469 76.253906 L 55.351562 76.253906 L 55.351562 94.246094 Z M 49.355469 73.253906 L 49.355469 55.261719 L 55.351562 55.261719 L 55.351562 73.253906 Z M 49.355469 52.265625 L 49.355469 51.984375 L 55.351562 51.984375 L 55.351562 52.265625 Z M 49.355469 52.265625 " fill-opacity="1" fill-rule="nonzero"/></g><g clip-path="url(#6cb92c2dbe)"><path fill="#000000" d="M 22.5 22.5 L 32.261719 22.5 L 32.261719 32.261719 L 22.5 32.261719 Z M 22.5 22.5 " fill-opacity="1" fill-rule="nonzero"/></g><g clip-path="url(#83d225aec8)"><path stroke-linecap="butt" transform="matrix(0.7491, 0, 0, 0.7491, 22.499999, 22.500009)" fill="none" stroke-linejoin="miter" d="M 0.0000012515 -0.0000120979 L 13.015627 -0.0000120979 L 13.015627 13.015613 L 0.0000012515 13.015613 L 0.0000012515 -0.0000120979 " stroke="#ffffff" stroke-width="8" stroke-opacity="1" stroke-miterlimit="4"/></g><g clip-path="url(#fdf2ae4f4c)"><path fill="#000000" d="M 193.058594 22.5 L 202.820312 22.5 L 202.820312 32.261719 L 193.058594 32.261719 Z M 193.058594 22.5 " fill-opacity="1" fill-rule="nonzero"/></g><g clip-path="url(#889b244041)"><path stroke-linecap="butt" transform="matrix(0.7491, 0, 0, 0.7491, 193.057581, 22.500009)" fill="none" stroke-linejoin="miter" d="M 0.00135228 -0.0000120979 L 13.016978 -0.0000120979 L 13.016978 13.015613 L 0.00135228 13.015613 L 0.00135228 -0.0000120979 " stroke="#ffffff" stroke-width="8" stroke-opacity="1" stroke-miterlimit="4"/></g><g clip-path="url(#c9249fe12d)"><path fill="#000000" d="M 22.5 192.738281 L 32.261719 192.738281 L 32.261719 202.5 L 22.5 202.5 Z M 22.5 192.738281 " fill-opacity="1" fill-rule="nonzero"/></g><g clip-path="url(#08083b37bd)"><path stroke-linecap="butt" transform="matrix(0.7491, 0, 0, 0.7491, 22.499999, 192.736701)" fill="none" stroke-linejoin="miter" d="M 0.0000012515 0.00210931 L 13.015627 0.00210931 L 13.015627 13.017735 L 0.0000012515 13.017735 L 0.0000012515 0.00210931 " stroke="#ffffff" stroke-width="8" stroke-opacity="1" stroke-miterlimit="4"/></g><g clip-path="url(#b7fa53205c)"><path fill="#000000" d="M 193.058594 192.738281 L 202.820312 192.738281 L 202.820312 202.5 L 193.058594 202.5 Z M 193.058594 192.738281 " fill-opacity="1" fill-rule="nonzero"/></g><g clip-path="url(#51812dce22)"><path stroke-linecap="butt" transform="matrix(0.7491, 0, 0, 0.7491, 193.057581, 192.736701)" fill="none" stroke-linejoin="miter" d="M 0.00135228 0.00210931 L 13.016978 0.00210931 L 13.016978 13.017735 L 0.00135228 13.017735 L 0.00135228 0.00210931 " stroke="#ffffff" stroke-width="8" stroke-opacity="1" stroke-miterlimit="4"/></g><g clip-path="url(#9ed7365dcd)"><path fill="#000000" d="M 49.144531 48.707031 L 58.910156 48.707031 L 58.910156 58.46875 L 49.144531 58.46875 Z M 49.144531 48.707031 " fill-opacity="1" fill-rule="nonzero"/></g><g clip-path="url(#1630705260)"><path stroke-linecap="butt" transform="matrix(0.7491, 0, 0, 0.7491, 49.144906, 48.706472)" fill="none" stroke-linejoin="miter" d="M -0.000500204 0.000746602 L 13.015125 0.000746602 L 13.015125 13.016372 L -0.000500204 13.016372 L -0.000500204 0.000746602 " stroke="#ffffff" stroke-width="8" stroke-opacity="1" stroke-miterlimit="4"/></g><g fill="#ffffff" fill-opacity="1"><g transform="translate(255.637461, 152.169781)"><g><path d="M 34.734375 -79.921875 C 43.242188 -79.921875 50.695312 -78.289062 57.09375 -75.03125 C 63.5 -71.78125 68.445312 -67.101562 71.9375 -61 C 75.425781 -54.90625 77.171875 -47.796875 77.171875 -39.671875 C 77.171875 -31.546875 75.425781 -24.492188 71.9375 -18.515625 C 68.445312 -12.535156 63.5 -7.953125 57.09375 -4.765625 C 50.695312 -1.585938 43.242188 0 34.734375 0 L 8.625 0 L 8.625 -79.921875 Z M 34.734375 -10.6875 C 44.085938 -10.6875 51.253906 -13.21875 56.234375 -18.28125 C 61.210938 -23.34375 63.703125 -30.472656 63.703125 -39.671875 C 63.703125 -48.953125 61.210938 -56.195312 56.234375 -61.40625 C 51.253906 -66.625 44.085938 -69.234375 34.734375 -69.234375 L 21.734375 -69.234375 L 21.734375 -10.6875 Z M 34.734375 -10.6875 "/></g></g></g><g fill="#ffffff" fill-opacity="1"><g transform="translate(337.169722, 152.169781)"><g><path d="M 66.703125 -33.234375 C 66.703125 -30.859375 66.546875 -28.710938 66.234375 -26.796875 L 17.828125 -26.796875 C 18.210938 -21.734375 20.085938 -17.664062 23.453125 -14.59375 C 26.828125 -11.53125 30.96875 -10 35.875 -10 C 42.925781 -10 47.910156 -12.953125 50.828125 -18.859375 L 64.96875 -18.859375 C 63.050781 -13.035156 59.582031 -8.265625 54.5625 -4.546875 C 49.539062 -0.828125 43.3125 1.03125 35.875 1.03125 C 29.820312 1.03125 24.398438 -0.328125 19.609375 -3.046875 C 14.816406 -5.765625 11.054688 -9.597656 8.328125 -14.546875 C 5.609375 -19.492188 4.25 -25.222656 4.25 -31.734375 C 4.25 -38.253906 5.570312 -43.984375 8.21875 -48.921875 C 10.863281 -53.867188 14.582031 -57.6875 19.375 -60.375 C 24.164062 -63.0625 29.664062 -64.40625 35.875 -64.40625 C 41.851562 -64.40625 47.179688 -63.097656 51.859375 -60.484375 C 56.535156 -57.878906 60.175781 -54.21875 62.78125 -49.5 C 65.394531 -44.789062 66.703125 -39.367188 66.703125 -33.234375 Z M 53.015625 -37.375 C 52.941406 -42.207031 51.21875 -46.078125 47.84375 -48.984375 C 44.46875 -51.898438 40.289062 -53.359375 35.3125 -53.359375 C 30.78125 -53.359375 26.90625 -51.921875 23.6875 -49.046875 C 20.46875 -46.171875 18.550781 -42.28125 17.9375 -37.375 Z M 53.015625 -37.375 "/></g></g></g><g fill="#ffffff" fill-opacity="1"><g transform="translate(408.122332, 152.169781)"><g><path d="M 31.625 1.03125 C 26.644531 1.03125 22.179688 0.128906 18.234375 -1.671875 C 14.285156 -3.472656 11.160156 -5.925781 8.859375 -9.03125 C 6.554688 -12.132812 5.328125 -15.601562 5.171875 -19.4375 L 18.75 -19.4375 C 18.976562 -16.75 20.257812 -14.503906 22.59375 -12.703125 C 24.9375 -10.898438 27.867188 -10 31.390625 -10 C 35.078125 -10 37.9375 -10.707031 39.96875 -12.125 C 42 -13.550781 43.015625 -15.375 43.015625 -17.59375 C 43.015625 -19.96875 41.878906 -21.726562 39.609375 -22.875 C 37.347656 -24.03125 33.765625 -25.300781 28.859375 -26.6875 C 24.109375 -27.988281 20.238281 -29.25 17.25 -30.46875 C 14.257812 -31.695312 11.671875 -33.578125 9.484375 -36.109375 C 7.296875 -38.640625 6.203125 -41.972656 6.203125 -46.109375 C 6.203125 -49.484375 7.195312 -52.566406 9.1875 -55.359375 C 11.1875 -58.160156 14.046875 -60.367188 17.765625 -61.984375 C 21.484375 -63.597656 25.757812 -64.40625 30.59375 -64.40625 C 37.800781 -64.40625 43.609375 -62.582031 48.015625 -58.9375 C 52.421875 -55.289062 54.773438 -50.328125 55.078125 -44.046875 L 41.96875 -44.046875 C 41.738281 -46.878906 40.585938 -49.140625 38.515625 -50.828125 C 36.453125 -52.515625 33.65625 -53.359375 30.125 -53.359375 C 26.675781 -53.359375 24.03125 -52.707031 22.1875 -51.40625 C 20.351562 -50.101562 19.4375 -48.378906 19.4375 -46.234375 C 19.4375 -44.546875 20.046875 -43.125 21.265625 -41.96875 C 22.492188 -40.820312 23.988281 -39.921875 25.75 -39.265625 C 27.519531 -38.617188 30.128906 -37.796875 33.578125 -36.796875 C 38.179688 -35.566406 41.957031 -34.320312 44.90625 -33.0625 C 47.851562 -31.800781 50.398438 -29.941406 52.546875 -27.484375 C 54.703125 -25.035156 55.816406 -21.773438 55.890625 -17.703125 C 55.890625 -14.109375 54.890625 -10.890625 52.890625 -8.046875 C 50.898438 -5.210938 48.082031 -2.988281 44.4375 -1.375 C 40.800781 0.226562 36.53125 1.03125 31.625 1.03125 Z M 31.625 1.03125 "/></g></g></g><g fill="#ffffff" fill-opacity="1"><g transform="translate(469.530273, 152.169781)"><g><path d="M 15.296875 -71.765625 C 12.921875 -71.765625 10.925781 -72.566406 9.3125 -74.171875 C 7.707031 -75.785156 6.90625 -77.78125 6.90625 -80.15625 C 6.90625 -82.53125 7.707031 -84.519531 9.3125 -86.125 C 10.925781 -87.738281 12.921875 -88.546875 15.296875 -88.546875 C 17.597656 -88.546875 19.550781 -87.738281 21.15625 -86.125 C 22.769531 -84.519531 23.578125 -82.53125 23.578125 -80.15625 C 23.578125 -77.78125 22.769531 -75.785156 21.15625 -74.171875 C 19.550781 -72.566406 17.597656 -71.765625 15.296875 -71.765625 Z M 21.734375 -63.359375 L 21.734375 0 L 8.625 0 L 8.625 -63.359375 Z M 21.734375 -63.359375 "/></g></g></g><g fill="#ffffff" fill-opacity="1"><g transform="translate(499.889251, 152.169781)"><g><path d="M 34.15625 -64.40625 C 39.0625 -64.40625 43.410156 -63.425781 47.203125 -61.46875 C 51.003906 -59.507812 53.976562 -57.078125 56.125 -54.171875 L 56.125 -63.359375 L 69.34375 -63.359375 L 69.34375 1.03125 C 69.34375 6.863281 68.113281 12.054688 65.65625 16.609375 C 63.207031 21.171875 59.660156 24.753906 55.015625 27.359375 C 50.378906 29.972656 44.84375 31.28125 38.40625 31.28125 C 29.820312 31.28125 22.691406 29.265625 17.015625 25.234375 C 11.347656 21.210938 8.128906 15.753906 7.359375 8.859375 L 20.359375 8.859375 C 21.347656 12.148438 23.472656 14.8125 26.734375 16.84375 C 29.992188 18.875 33.882812 19.890625 38.40625 19.890625 C 43.695312 19.890625 47.972656 18.28125 51.234375 15.0625 C 54.492188 11.84375 56.125 7.164062 56.125 1.03125 L 56.125 -9.546875 C 53.894531 -6.554688 50.882812 -4.046875 47.09375 -2.015625 C 43.300781 0.015625 38.988281 1.03125 34.15625 1.03125 C 28.632812 1.03125 23.59375 -0.363281 19.03125 -3.15625 C 14.46875 -5.957031 10.863281 -9.867188 8.21875 -14.890625 C 5.570312 -19.910156 4.25 -25.601562 4.25 -31.96875 C 4.25 -38.332031 5.570312 -43.96875 8.21875 -48.875 C 10.863281 -53.78125 14.46875 -57.59375 19.03125 -60.3125 C 23.59375 -63.039062 28.632812 -64.40625 34.15625 -64.40625 Z M 56.125 -31.734375 C 56.125 -36.109375 55.222656 -39.90625 53.421875 -43.125 C 51.617188 -46.34375 49.257812 -48.796875 46.34375 -50.484375 C 43.425781 -52.171875 40.285156 -53.015625 36.921875 -53.015625 C 33.546875 -53.015625 30.398438 -52.1875 27.484375 -50.53125 C 24.566406 -48.882812 22.207031 -46.472656 20.40625 -43.296875 C 18.601562 -40.117188 17.703125 -36.34375 17.703125 -31.96875 C 17.703125 -27.601562 18.601562 -23.769531 20.40625 -20.46875 C 22.207031 -17.175781 24.582031 -14.664062 27.53125 -12.9375 C 30.488281 -11.207031 33.617188 -10.34375 36.921875 -10.34375 C 40.285156 -10.34375 43.425781 -11.1875 46.34375 -12.875 C 49.257812 -14.5625 51.617188 -17.035156 53.421875 -20.296875 C 55.222656 -23.554688 56.125 -27.367188 56.125 -31.734375 Z M 56.125 -31.734375 "/></g></g></g><g fill="#ffffff" fill-opacity="1"><g transform="translate(577.856631, 152.169781)"><g><path d="M 40.59375 -64.40625 C 45.570312 -64.40625 50.035156 -63.367188 53.984375 -61.296875 C 57.941406 -59.222656 61.03125 -56.15625 63.25 -52.09375 C 65.46875 -48.03125 66.578125 -43.125 66.578125 -37.375 L 66.578125 0 L 53.59375 0 L 53.59375 -35.421875 C 53.59375 -41.097656 52.171875 -45.445312 49.328125 -48.46875 C 46.492188 -51.5 42.625 -53.015625 37.71875 -53.015625 C 32.8125 -53.015625 28.921875 -51.5 26.046875 -48.46875 C 23.171875 -45.445312 21.734375 -41.097656 21.734375 -35.421875 L 21.734375 0 L 8.625 0 L 8.625 -63.359375 L 21.734375 -63.359375 L 21.734375 -56.125 C 23.878906 -58.726562 26.617188 -60.757812 29.953125 -62.21875 C 33.285156 -63.675781 36.832031 -64.40625 40.59375 -64.40625 Z M 40.59375 -64.40625 "/></g></g></g></svg>