<svg xmlns="http://www.w3.org/2000/svg" xmlns:xlink="http://www.w3.org/1999/xlink" width="1080" zoomAndPan="magnify" viewBox="0 0 810 809.999993" height="1080" preserveAspectRatio="xMidYMid meet" version="1.0"><defs><clipPath id="c75eeb0d6f"><path d="M 81 81 L 729 81 L 729 729 L 81 729 Z M 81 81 " clip-rule="nonzero"/></clipPath><clipPath id="cf071fa645"><path d="M 179 179 L 728.75 179 L 728.75 728.75 L 179 728.75 Z M 179 179 " clip-rule="nonzero"/></clipPath><clipPath id="0658a7e4cc"><path d="M 67.359375 68.746094 L 103.871094 68.746094 L 103.871094 105.253906 L 67.359375 105.253906 Z M 67.359375 68.746094 " clip-rule="nonzero"/></clipPath><clipPath id="70437dbd4d"><path d="M 67.359375 68.746094 L 104.109375 68.746094 L 104.109375 105.496094 L 67.359375 105.496094 Z M 67.359375 68.746094 " clip-rule="nonzero"/></clipPath><clipPath id="8b66931a43"><path d="M 705.160156 68.746094 L 741.671875 68.746094 L 741.671875 105.253906 L 705.160156 105.253906 Z M 705.160156 68.746094 " clip-rule="nonzero"/></clipPath><clipPath id="409cca3963"><path d="M 705.160156 68.746094 L 741.910156 68.746094 L 741.910156 105.496094 L 705.160156 105.496094 Z M 705.160156 68.746094 " clip-rule="nonzero"/></clipPath><clipPath id="a7b2efcba7"><path d="M 67.359375 705.34375 L 103.871094 705.34375 L 103.871094 741.855469 L 67.359375 741.855469 Z M 67.359375 705.34375 " clip-rule="nonzero"/></clipPath><clipPath id="d8a66dadeb"><path d="M 67.359375 705.34375 L 104.109375 705.34375 L 104.109375 742.09375 L 67.359375 742.09375 Z M 67.359375 705.34375 " clip-rule="nonzero"/></clipPath><clipPath id="54f44a698a"><path d="M 705.160156 705.34375 L 741.671875 705.34375 L 741.671875 741.855469 L 705.160156 741.855469 Z M 705.160156 705.34375 " clip-rule="nonzero"/></clipPath><clipPath id="56b2acbfbd"><path d="M 705.160156 705.34375 L 741.910156 705.34375 L 741.910156 742.09375 L 705.160156 742.09375 Z M 705.160156 705.34375 " clip-rule="nonzero"/></clipPath><clipPath id="296fd33912"><path d="M 167 166.746094 L 203.507812 166.746094 L 203.507812 203.253906 L 167 203.253906 Z M 167 166.746094 " clip-rule="nonzero"/></clipPath><clipPath id="1f6b374f7f"><path d="M 167 166.746094 L 203.75 166.746094 L 203.75 203.496094 L 167 203.496094 Z M 167 166.746094 " clip-rule="nonzero"/></clipPath></defs><g clip-path="url(#c75eeb0d6f)"><path fill="#000000" d="M 81 72 L 135 72 L 135 90 L 81 90 Z M 144 72 L 198 72 L 198 90 L 144 90 Z M 207 72 L 261 72 L 261 90 L 207 90 Z M 270 72 L 324 72 L 324 90 L 270 90 Z M 333 72 L 387 72 L 387 90 L 333 90 Z M 396 72 L 450 72 L 450 90 L 396 90 Z M 459 72 L 513 72 L 513 90 L 459 90 Z M 522 72 L 576 72 L 576 90 L 522 90 Z M 585 72 L 639 72 L 639 90 L 585 90 Z M 648 72 L 702 72 L 702 90 L 648 90 Z M 711 72 L 738 72 L 738 117 L 720 117 L 720 81 L 729 81 L 729 90 L 711 90 Z M 738 126 L 738 180 L 720 180 L 720 126 Z M 738 189 L 738 243 L 720 243 L 720 189 Z M 738 252 L 738 306 L 720 306 L 720 252 Z M 738 315 L 738 369 L 720 369 L 720 315 Z M 738 378 L 738 432 L 720 432 L 720 378 Z M 738 441 L 738 495 L 720 495 L 720 441 Z M 738 504 L 738 558 L 720 558 L 720 504 Z M 738 567 L 738 621 L 720 621 L 720 567 Z M 738 630 L 738 684 L 720 684 L 720 630 Z M 738 693 L 738 738 L 711 738 L 711 720 L 729 720 L 729 729 L 720 729 L 720 693 Z M 702 738 L 648 738 L 648 720 L 702 720 Z M 639 738 L 585 738 L 585 720 L 639 720 Z M 576 738 L 522 738 L 522 720 L 576 720 Z M 513 738 L 459 738 L 459 720 L 513 720 Z M 450 738 L 396 738 L 396 720 L 450 720 Z M 387 738 L 333 738 L 333 720 L 387 720 Z M 324 738 L 270 738 L 270 720 L 324 720 Z M 261 738 L 207 738 L 207 720 L 261 720 Z M 198 738 L 144 738 L 144 720 L 198 720 Z M 135 738 L 81 738 L 81 720 L 135 720 Z M 72 720 L 72 666 L 90 666 L 90 720 Z M 72 657 L 72 603 L 90 603 L 90 657 Z M 72 594 L 72 540 L 90 540 L 90 594 Z M 72 531 L 72 477 L 90 477 L 90 531 Z M 72 468 L 72 414 L 90 414 L 90 468 Z M 72 405 L 72 351 L 90 351 L 90 405 Z M 72 342 L 72 288 L 90 288 L 90 342 Z M 72 279 L 72 225 L 90 225 L 90 279 Z M 72 216 L 72 162 L 90 162 L 90 216 Z M 72 153 L 72 99 L 90 99 L 90 153 Z M 72 90 L 72 81 L 90 81 L 90 90 Z M 72 90 " fill-opacity="1" fill-rule="nonzero"/></g><g clip-path="url(#cf071fa645)"><path fill="#000000" d="M 179 170.003906 L 232.976562 170.003906 L 232.976562 187.996094 L 179 187.996094 Z M 241.972656 170.003906 L 295.945312 170.003906 L 295.945312 187.996094 L 241.972656 187.996094 Z M 304.941406 170.003906 L 358.917969 170.003906 L 358.917969 187.996094 L 304.941406 187.996094 Z M 367.914062 170.003906 L 421.890625 170.003906 L 421.890625 187.996094 L 367.914062 187.996094 Z M 430.886719 170.003906 L 484.863281 170.003906 L 484.863281 187.996094 L 430.886719 187.996094 Z M 493.859375 170.003906 L 547.832031 170.003906 L 547.832031 187.996094 L 493.859375 187.996094 Z M 556.828125 170.003906 L 610.804688 170.003906 L 610.804688 187.996094 L 556.828125 187.996094 Z M 619.800781 170.003906 L 673.777344 170.003906 L 673.777344 187.996094 L 619.800781 187.996094 Z M 682.773438 170.003906 L 737.746094 170.003906 L 737.746094 187 L 719.753906 187 L 719.753906 179 L 728.75 179 L 728.75 187.996094 L 682.773438 187.996094 Z M 737.746094 195.996094 L 737.746094 249.972656 L 719.753906 249.972656 L 719.753906 195.996094 Z M 737.746094 258.96875 L 737.746094 312.941406 L 719.753906 312.941406 L 719.753906 258.96875 Z M 737.746094 321.9375 L 737.746094 375.914062 L 719.753906 375.914062 L 719.753906 321.9375 Z M 737.746094 384.910156 L 737.746094 438.886719 L 719.753906 438.886719 L 719.753906 384.910156 Z M 737.746094 447.882812 L 737.746094 501.859375 L 719.753906 501.859375 L 719.753906 447.882812 Z M 737.746094 510.855469 L 737.746094 564.832031 L 719.753906 564.832031 L 719.753906 510.855469 Z M 737.746094 573.828125 L 737.746094 627.800781 L 719.753906 627.800781 L 719.753906 573.828125 Z M 737.746094 636.796875 L 737.746094 690.773438 L 719.753906 690.773438 L 719.753906 636.796875 Z M 737.746094 699.769531 L 737.746094 737.746094 L 703.753906 737.746094 L 703.753906 719.753906 L 728.75 719.753906 L 728.75 728.75 L 719.753906 728.75 L 719.753906 699.769531 Z M 694.757812 737.746094 L 640.78125 737.746094 L 640.78125 719.753906 L 694.757812 719.753906 Z M 631.785156 737.746094 L 577.808594 737.746094 L 577.808594 719.753906 L 631.785156 719.753906 Z M 568.8125 737.746094 L 514.835938 737.746094 L 514.835938 719.753906 L 568.8125 719.753906 Z M 505.839844 737.746094 L 451.863281 737.746094 L 451.863281 719.753906 L 505.839844 719.753906 Z M 442.871094 737.746094 L 388.894531 737.746094 L 388.894531 719.753906 L 442.871094 719.753906 Z M 379.898438 737.746094 L 325.921875 737.746094 L 325.921875 719.753906 L 379.898438 719.753906 Z M 316.925781 737.746094 L 262.949219 737.746094 L 262.949219 719.753906 L 316.925781 719.753906 Z M 253.953125 737.746094 L 199.976562 737.746094 L 199.976562 719.753906 L 253.953125 719.753906 Z M 190.980469 737.746094 L 170.003906 737.746094 L 170.003906 686.757812 L 187.996094 686.757812 L 187.996094 728.75 L 179 728.75 L 179 719.753906 L 190.980469 719.753906 Z M 170.003906 677.761719 L 170.003906 623.785156 L 187.996094 623.785156 L 187.996094 677.761719 Z M 170.003906 614.789062 L 170.003906 560.8125 L 187.996094 560.8125 L 187.996094 614.789062 Z M 170.003906 551.816406 L 170.003906 497.839844 L 187.996094 497.839844 L 187.996094 551.816406 Z M 170.003906 488.84375 L 170.003906 434.867188 L 187.996094 434.867188 L 187.996094 488.84375 Z M 170.003906 425.871094 L 170.003906 371.898438 L 187.996094 371.898438 L 187.996094 425.871094 Z M 170.003906 362.902344 L 170.003906 308.925781 L 187.996094 308.925781 L 187.996094 362.902344 Z M 170.003906 299.929688 L 170.003906 245.953125 L 187.996094 245.953125 L 187.996094 299.929688 Z M 170.003906 236.957031 L 170.003906 182.980469 L 187.996094 182.980469 L 187.996094 236.957031 Z M 170.003906 236.957031 " fill-opacity="1" fill-rule="nonzero"/></g><g clip-path="url(#0658a7e4cc)"><path fill="#ffffff" d="M 67.359375 68.746094 L 103.871094 68.746094 L 103.871094 105.253906 L 67.359375 105.253906 Z M 67.359375 68.746094 " fill-opacity="1" fill-rule="nonzero"/></g><g clip-path="url(#70437dbd4d)"><path stroke-linecap="butt" transform="matrix(0.755056, 0, 0, 0.755056, 67.360459, 68.745091)" fill="none" stroke-linejoin="miter" d="M -0.00143607 0.00132812 L 48.670446 0.00132812 L 48.670446 48.67321 L -0.00143607 48.67321 L -0.00143607 0.00132812 " stroke="#000000" stroke-width="8" stroke-opacity="1" stroke-miterlimit="4"/></g><g clip-path="url(#8b66931a43)"><path fill="#ffffff" d="M 705.160156 68.746094 L 741.671875 68.746094 L 741.671875 105.253906 L 705.160156 105.253906 Z M 705.160156 68.746094 " fill-opacity="1" fill-rule="nonzero"/></g><g clip-path="url(#409cca3963)"><path stroke-linecap="butt" transform="matrix(0.755056, 0, 0, 0.755056, 705.160408, 68.745091)" fill="none" stroke-linejoin="miter" d="M -0.000333451 0.00132812 L 48.671549 0.00132812 L 48.671549 48.67321 L -0.000333451 48.67321 L -0.000333451 0.00132812 " stroke="#000000" stroke-width="8" stroke-opacity="1" stroke-miterlimit="4"/></g><g clip-path="url(#a7b2efcba7)"><path fill="#ffffff" d="M 67.359375 705.34375 L 103.871094 705.34375 L 103.871094 741.855469 L 67.359375 741.855469 Z M 67.359375 705.34375 " fill-opacity="1" fill-rule="nonzero"/></g><g clip-path="url(#d8a66dadeb)"><path stroke-linecap="butt" transform="matrix(0.755056, 0, 0, 0.755056, 67.360459, 705.345033)" fill="none" stroke-linejoin="miter" d="M -0.00143607 -0.00169857 L 48.670446 -0.00169857 L 48.670446 48.670184 L -0.00143607 48.670184 L -0.00143607 -0.00169857 " stroke="#000000" stroke-width="8" stroke-opacity="1" stroke-miterlimit="4"/></g><g clip-path="url(#54f44a698a)"><path fill="#ffffff" d="M 705.160156 705.34375 L 741.671875 705.34375 L 741.671875 741.855469 L 705.160156 741.855469 Z M 705.160156 705.34375 " fill-opacity="1" fill-rule="nonzero"/></g><g clip-path="url(#56b2acbfbd)"><path stroke-linecap="butt" transform="matrix(0.755056, 0, 0, 0.755056, 705.160408, 705.345033)" fill="none" stroke-linejoin="miter" d="M -0.000333451 -0.00169857 L 48.671549 -0.00169857 L 48.671549 48.670184 L -0.000333451 48.670184 L -0.000333451 -0.00169857 " stroke="#000000" stroke-width="8" stroke-opacity="1" stroke-miterlimit="4"/></g><g clip-path="url(#296fd33912)"><path fill="#ffffff" d="M 167 166.746094 L 203.507812 166.746094 L 203.507812 203.253906 L 167 203.253906 Z M 167 166.746094 " fill-opacity="1" fill-rule="nonzero"/></g><g clip-path="url(#1f6b374f7f)"><path stroke-linecap="butt" transform="matrix(0.755056, 0, 0, 0.755056, 166.999068, 166.744156)" fill="none" stroke-linejoin="miter" d="M 0.00123448 0.00256582 L 48.673117 0.00256582 L 48.673117 48.674448 L 0.00123448 48.674448 L 0.00123448 0.00256582 " stroke="#000000" stroke-width="8" stroke-opacity="1" stroke-miterlimit="4"/></g></svg>