<svg class="resources_stars__OeSLm" fill="none" height="284" viewBox="0 0 1115 284" width="1115"
    style="transform: translateY(76.9231px) translateZ(0px);">
    <g opacity="0.8">
        <g opacity="0.6">
            <circle cx="392.129" cy="128.839" fill="#D9D9D9" r="1.5" transform="rotate(-37.939 392.129 128.839)">
            </circle>
            <circle cx="336.105" cy="110.105" fill="#D9D9D9" r="1.5" transform="rotate(-37.939 336.105 110.105)">
            </circle>
            <circle cx="304.105" cy="149.105" fill="#D9D9D9" r="1.5" transform="rotate(-37.939 304.105 149.105)">
            </circle>
            <circle cx="373.525" cy="123.686" fill="#D9D9D9" r="1" transform="rotate(-37.939 373.525 123.686)"></circle>
            <circle cx="247.403" cy="152.403" fill="#D9D9D9" r="1" transform="rotate(-37.939 247.403 152.403)"></circle>
            <circle cx="395.785" cy="110.767" fill="#D9D9D9" r="1.5" transform="rotate(-37.939 395.785 110.767)">
            </circle>
            <circle cx="478.105" cy="133.105" fill="#D9D9D9" r="1.5" transform="rotate(-37.939 478.105 133.105)">
            </circle>
            <circle cx="496.105" cy="167.105" fill="#D9D9D9" r="1.5" transform="rotate(-37.939 496.105 167.105)">
            </circle>
            <circle cx="297.105" cy="109.105" fill="#D9D9D9" r="1.5" transform="rotate(-37.939 297.105 109.105)">
            </circle>
            <circle cx="405.364" cy="125.492" fill="#D9D9D9" r="1" transform="rotate(-37.939 405.364 125.492)"></circle>
            <circle cx="398.45" cy="141.021" fill="#D9D9D9" opacity="0.5" r="1"
                transform="rotate(-37.939 398.45 141.021)"></circle>
            <circle cx="198.403" cy="121.403" fill="#D9D9D9" opacity="0.5" r="1"
                transform="rotate(-37.939 198.403 121.403)"></circle>
            <circle cx="368.403" cy="179.403" fill="#D9D9D9" opacity="0.5" r="1"
                transform="rotate(-37.939 368.403 179.403)"></circle>
            <circle cx="286.403" cy="174.403" fill="#D9D9D9" opacity="0.5" r="1"
                transform="rotate(-37.939 286.403 174.403)"></circle>
            <circle cx="554.404" cy="134.403" fill="#D9D9D9" opacity="0.5" r="1"
                transform="rotate(-37.939 554.404 134.403)"></circle>
            <circle cx="422.653" cy="141.172" fill="#D9D9D9" opacity="0.5" r="1"
                transform="rotate(-37.939 422.653 141.172)"></circle>
            <circle cx="435.133" cy="177.438" fill="#D9D9D9" r="1.5" transform="rotate(168.299 435.133 177.438)">
            </circle>
            <circle cx="449.525" cy="190.274" fill="#D9D9D9" r="1" transform="rotate(168.299 449.525 190.274)"></circle>
            <circle cx="333.181" cy="176.182" fill="#D9D9D9" r="1" transform="rotate(168.299 333.181 176.182)"></circle>
            <circle cx="423.844" cy="192.02" fill="#D9D9D9" r="1.5" transform="rotate(168.299 423.844 192.02)"></circle>
            <circle cx="238.774" cy="187.773" fill="#D9D9D9" r="1.5" transform="rotate(168.299 238.774 187.773)">
            </circle>
            <circle cx="256.774" cy="134.773" fill="#D9D9D9" r="1.5" transform="rotate(168.299 256.774 134.773)">
            </circle>
            <circle cx="421.763" cy="174.585" fill="#D9D9D9" r="1" transform="rotate(168.299 421.763 174.585)"></circle>
            <circle cx="347.181" cy="152.182" fill="#D9D9D9" r="1" transform="rotate(168.299 347.181 152.182)"></circle>
            <circle cx="513.181" cy="162.182" fill="#D9D9D9" r="1" transform="rotate(168.299 513.181 162.182)"></circle>
            <circle cx="535.181" cy="119.182" fill="#D9D9D9" r="1" transform="rotate(168.299 535.181 119.182)"></circle>
            <circle cx="434.83" cy="163.708" fill="#D9D9D9" opacity="0.5" r="1"
                transform="rotate(168.299 434.83 163.708)"></circle>
            <circle cx="623.181" cy="133.182" fill="#D9D9D9" opacity="0.5" r="1"
                transform="rotate(168.299 623.181 133.182)"></circle>
            <circle cx="413.181" cy="152.861" fill="#D9D9D9" opacity="0.5" r="1"
                transform="rotate(168.299 413.181 152.861)"></circle>
            <circle fill="#D9D9D9" r="1" transform="matrix(0.788666 0.614822 0.614822 -0.788666 895.364 276.301)">
            </circle>
            <circle fill="#D9D9D9" opacity="0.5" r="1"
                transform="matrix(0.788666 0.614822 0.614822 -0.788666 888.45 260.773)"></circle>
            <circle fill="#D9D9D9" opacity="0.5" r="1"
                transform="matrix(0.788666 0.614822 0.614822 -0.788666 688.403 280.39)"></circle>
            <circle fill="#D9D9D9" opacity="0.5" r="1"
                transform="matrix(0.788666 0.614822 0.614822 -0.788666 858.403 222.39)"></circle>
            <circle fill="#D9D9D9" opacity="0.5" r="1"
                transform="matrix(0.788666 0.614822 0.614822 -0.788666 776.403 227.39)"></circle>
            <circle fill="#D9D9D9" opacity="0.5" r="1"
                transform="matrix(0.788666 0.614822 0.614822 -0.788666 1044.4 267.39)"></circle>
            <circle fill="#D9D9D9" opacity="0.5" r="1"
                transform="matrix(0.788666 0.614822 0.614822 -0.788666 912.653 260.621)"></circle>
            <circle fill="#D9D9D9" r="1.5" transform="matrix(-0.979219 -0.202805 -0.202805 0.979219 925.133 224.355)">
            </circle>
            <circle fill="#D9D9D9" r="1" transform="matrix(-0.979219 -0.202805 -0.202805 0.979219 939.525 211.519)">
            </circle>
            <circle fill="#D9D9D9" r="1" transform="matrix(-0.979219 -0.202805 -0.202805 0.979219 823.181 225.611)">
            </circle>
            <circle fill="#D9D9D9" r="1.5" transform="matrix(-0.979219 -0.202805 -0.202805 0.979219 913.844 209.773)">
            </circle>
            <circle fill="#D9D9D9" r="1.5" transform="matrix(-0.979219 -0.202805 -0.202805 0.979219 728.774 214.02)">
            </circle>
            <circle fill="#D9D9D9" r="1.5" transform="matrix(-0.979219 -0.202805 -0.202805 0.979219 746.774 267.02)">
            </circle>
            <circle fill="#D9D9D9" r="1" transform="matrix(-0.979219 -0.202805 -0.202805 0.979219 911.763 227.208)">
            </circle>
            <circle fill="#D9D9D9" r="1" transform="matrix(-0.979219 -0.202805 -0.202805 0.979219 837.181 249.611)">
            </circle>
            <circle fill="#D9D9D9" r="1" transform="matrix(-0.979219 -0.202805 -0.202805 0.979219 1003.18 239.611)">
            </circle>
            <circle fill="#D9D9D9" r="1" transform="matrix(-0.979219 -0.202805 -0.202805 0.979219 1025.18 282.611)">
            </circle>
            <circle fill="#D9D9D9" opacity="0.5" r="1"
                transform="matrix(-0.979219 -0.202805 -0.202805 0.979219 924.83 238.086)"></circle>
            <circle fill="#D9D9D9" opacity="0.5" r="1"
                transform="matrix(-0.979219 -0.202805 -0.202805 0.979219 1113.18 268.611)"></circle>
            <circle fill="#D9D9D9" opacity="0.5" r="1"
                transform="matrix(-0.979219 -0.202805 -0.202805 0.979219 903.181 248.932)"></circle>
            <circle fill="#D9D9D9" r="1" transform="matrix(0.788666 0.614822 0.614822 -0.788666 754.364 182.301)">
            </circle>
            <circle fill="#D9D9D9" opacity="0.5" r="1"
                transform="matrix(0.788666 0.614822 0.614822 -0.788666 747.45 166.773)"></circle>
            <circle fill="#D9D9D9" opacity="0.5" r="1"
                transform="matrix(0.788666 0.614822 0.614822 -0.788666 547.403 186.39)"></circle>
            <circle fill="#D9D9D9" opacity="0.5" r="1"
                transform="matrix(0.788666 0.614822 0.614822 -0.788666 717.403 128.39)"></circle>
            <circle fill="#D9D9D9" opacity="0.5" r="1"
                transform="matrix(0.788666 0.614822 0.614822 -0.788666 635.403 133.39)"></circle>
            <circle fill="#D9D9D9" opacity="0.5" r="1"
                transform="matrix(0.788666 0.614822 0.614822 -0.788666 903.403 173.39)"></circle>
            <circle fill="#D9D9D9" opacity="0.5" r="1"
                transform="matrix(0.788666 0.614822 0.614822 -0.788666 771.653 166.621)"></circle>
            <circle fill="#D9D9D9" r="1.5" transform="matrix(-0.979219 -0.202805 -0.202805 0.979219 784.133 130.355)">
            </circle>
            <circle fill="#D9D9D9" r="1" transform="matrix(-0.979219 -0.202805 -0.202805 0.979219 798.525 117.519)">
            </circle>
            <circle fill="#D9D9D9" r="1" transform="matrix(-0.979219 -0.202805 -0.202805 0.979219 682.181 131.611)">
            </circle>
            <circle fill="#D9D9D9" r="1.5" transform="matrix(-0.979219 -0.202805 -0.202805 0.979219 772.844 115.773)">
            </circle>
            <circle fill="#D9D9D9" r="1.5" transform="matrix(-0.979219 -0.202805 -0.202805 0.979219 587.774 120.02)">
            </circle>
            <circle fill="#D9D9D9" r="1.5" transform="matrix(-0.979219 -0.202805 -0.202805 0.979219 605.774 173.02)">
            </circle>
            <circle fill="#D9D9D9" r="1" transform="matrix(-0.979219 -0.202805 -0.202805 0.979219 770.763 133.208)">
            </circle>
            <circle fill="#D9D9D9" r="1" transform="matrix(-0.979219 -0.202805 -0.202805 0.979219 696.181 155.611)">
            </circle>
            <circle fill="#D9D9D9" r="1" transform="matrix(-0.979219 -0.202805 -0.202805 0.979219 862.181 145.611)">
            </circle>
            <circle fill="#D9D9D9" r="1" transform="matrix(-0.979219 -0.202805 -0.202805 0.979219 884.181 188.611)">
            </circle>
            <circle fill="#D9D9D9" opacity="0.5" r="1"
                transform="matrix(-0.979219 -0.202805 -0.202805 0.979219 783.83 144.086)"></circle>
            <circle fill="#D9D9D9" opacity="0.5" r="1"
                transform="matrix(-0.979219 -0.202805 -0.202805 0.979219 972.181 174.611)"></circle>
            <circle fill="#D9D9D9" opacity="0.5" r="1"
                transform="matrix(-0.979219 -0.202805 -0.202805 0.979219 762.181 154.932)"></circle>
            <circle cx="208.364" cy="212.492" fill="#D9D9D9" r="1" transform="rotate(-37.939 208.364 212.492)"></circle>
            <circle cx="201.45" cy="228.02" fill="#D9D9D9" opacity="0.5" r="1"
                transform="rotate(-37.939 201.45 228.02)"></circle>
            <circle cx="1.40349" cy="208.403" fill="#D9D9D9" opacity="0.5" r="1"
                transform="rotate(-37.939 1.40349 208.403)"></circle>
            <circle cx="171.403" cy="266.403" fill="#D9D9D9" opacity="0.5" r="1"
                transform="rotate(-37.939 171.403 266.403)"></circle>
            <circle cx="89.4035" cy="261.403" fill="#D9D9D9" opacity="0.5" r="1"
                transform="rotate(-37.939 89.4035 261.403)"></circle>
            <circle cx="357.403" cy="221.403" fill="#D9D9D9" opacity="0.5" r="1"
                transform="rotate(-37.939 357.403 221.403)"></circle>
            <circle cx="225.653" cy="228.172" fill="#D9D9D9" opacity="0.5" r="1"
                transform="rotate(-37.939 225.653 228.172)"></circle>
            <circle cx="238.133" cy="264.438" fill="#D9D9D9" r="1.5" transform="rotate(168.299 238.133 264.438)">
            </circle>
            <circle cx="252.525" cy="277.274" fill="#D9D9D9" r="1" transform="rotate(168.299 252.525 277.274)"></circle>
            <circle cx="136.181" cy="263.182" fill="#D9D9D9" r="1" transform="rotate(168.299 136.181 263.182)"></circle>
            <circle cx="226.844" cy="279.02" fill="#D9D9D9" r="1.5" transform="rotate(168.299 226.844 279.02)"></circle>
            <circle cx="41.7738" cy="274.773" fill="#D9D9D9" r="1.5" transform="rotate(168.299 41.7738 274.773)">
            </circle>
            <circle cx="59.7738" cy="221.773" fill="#D9D9D9" r="1.5" transform="rotate(168.299 59.7738 221.773)">
            </circle>
            <circle cx="224.763" cy="261.585" fill="#D9D9D9" r="1" transform="rotate(168.299 224.763 261.585)"></circle>
            <circle cx="150.181" cy="239.182" fill="#D9D9D9" r="1" transform="rotate(168.299 150.181 239.182)"></circle>
            <circle cx="316.181" cy="249.182" fill="#D9D9D9" r="1" transform="rotate(168.299 316.181 249.182)"></circle>
            <circle cx="338.181" cy="206.182" fill="#D9D9D9" r="1" transform="rotate(168.299 338.181 206.182)"></circle>
            <circle cx="237.83" cy="250.707" fill="#D9D9D9" opacity="0.5" r="1"
                transform="rotate(168.299 237.83 250.707)"></circle>
            <circle cx="426.181" cy="220.182" fill="#D9D9D9" opacity="0.5" r="1"
                transform="rotate(168.299 426.181 220.182)"></circle>
            <circle cx="216.181" cy="239.861" fill="#D9D9D9" opacity="0.5" r="1"
                transform="rotate(168.299 216.181 239.861)"></circle>
            <circle fill="#D9D9D9" r="1" transform="matrix(0.788666 0.614822 0.614822 -0.788666 553.364 267.301)">
            </circle>
            <circle fill="#D9D9D9" opacity="0.5" r="1"
                transform="matrix(0.788666 0.614822 0.614822 -0.788666 546.45 251.773)"></circle>
            <circle fill="#D9D9D9" opacity="0.5" r="1"
                transform="matrix(0.788666 0.614822 0.614822 -0.788666 346.403 271.39)"></circle>
            <circle fill="#D9D9D9" opacity="0.5" r="1"
                transform="matrix(0.788666 0.614822 0.614822 -0.788666 516.403 213.39)"></circle>
            <circle fill="#D9D9D9" opacity="0.5" r="1"
                transform="matrix(0.788666 0.614822 0.614822 -0.788666 434.403 218.39)"></circle>
            <circle fill="#D9D9D9" opacity="0.5" r="1"
                transform="matrix(0.788666 0.614822 0.614822 -0.788666 702.403 258.39)"></circle>
            <circle fill="#D9D9D9" opacity="0.5" r="1"
                transform="matrix(0.788666 0.614822 0.614822 -0.788666 570.653 251.621)"></circle>
            <circle fill="#D9D9D9" r="1.5" transform="matrix(-0.979219 -0.202805 -0.202805 0.979219 583.133 215.355)">
            </circle>
            <circle fill="#D9D9D9" r="1" transform="matrix(-0.979219 -0.202805 -0.202805 0.979219 597.525 202.519)">
            </circle>
            <circle fill="#D9D9D9" r="1" transform="matrix(-0.979219 -0.202805 -0.202805 0.979219 481.181 216.611)">
            </circle>
            <circle fill="#D9D9D9" r="1.5" transform="matrix(-0.979219 -0.202805 -0.202805 0.979219 571.844 200.773)">
            </circle>
            <circle fill="#D9D9D9" r="1.5" transform="matrix(-0.979219 -0.202805 -0.202805 0.979219 386.774 205.02)">
            </circle>
            <circle fill="#D9D9D9" r="1.5" transform="matrix(-0.979219 -0.202805 -0.202805 0.979219 404.774 258.02)">
            </circle>
            <circle fill="#D9D9D9" r="1" transform="matrix(-0.979219 -0.202805 -0.202805 0.979219 569.763 218.208)">
            </circle>
            <circle fill="#D9D9D9" r="1" transform="matrix(-0.979219 -0.202805 -0.202805 0.979219 495.181 240.611)">
            </circle>
            <circle fill="#D9D9D9" r="1" transform="matrix(-0.979219 -0.202805 -0.202805 0.979219 661.181 230.611)">
            </circle>
            <circle fill="#D9D9D9" r="1" transform="matrix(-0.979219 -0.202805 -0.202805 0.979219 683.181 273.611)">
            </circle>
            <circle fill="#D9D9D9" opacity="0.5" r="1"
                transform="matrix(-0.979219 -0.202805 -0.202805 0.979219 582.83 229.086)"></circle>
            <circle fill="#D9D9D9" opacity="0.5" r="1"
                transform="matrix(-0.979219 -0.202805 -0.202805 0.979219 771.181 259.611)"></circle>
            <circle fill="#D9D9D9" opacity="0.5" r="1"
                transform="matrix(-0.979219 -0.202805 -0.202805 0.979219 561.181 239.932)"></circle>
            <circle cx="333.364" cy="7.49165" fill="#D9D9D9" r="1" transform="rotate(-37.939 333.364 7.49165)"></circle>
            <circle cx="326.45" cy="23.0205" fill="#D9D9D9" opacity="0.5" r="1"
                transform="rotate(-37.939 326.45 23.0205)"></circle>
            <circle cx="126.403" cy="3.40327" fill="#D9D9D9" opacity="0.5" r="1"
                transform="rotate(-37.939 126.403 3.40327)"></circle>
            <circle cx="296.403" cy="61.4033" fill="#D9D9D9" opacity="0.5" r="1"
                transform="rotate(-37.939 296.403 61.4033)"></circle>
            <circle cx="214.403" cy="56.4033" fill="#D9D9D9" opacity="0.5" r="1"
                transform="rotate(-37.939 214.403 56.4033)"></circle>
            <circle cx="482.403" cy="16.4033" fill="#D9D9D9" opacity="0.5" r="1"
                transform="rotate(-37.939 482.403 16.4033)"></circle>
            <circle cx="350.653" cy="23.1723" fill="#D9D9D9" opacity="0.5" r="1"
                transform="rotate(-37.939 350.653 23.1723)"></circle>
            <circle cx="363.133" cy="59.4379" fill="#D9D9D9" r="1.5" transform="rotate(168.299 363.133 59.4379)">
            </circle>
            <circle cx="377.525" cy="72.2738" fill="#D9D9D9" r="1" transform="rotate(168.299 377.525 72.2738)"></circle>
            <circle cx="261.181" cy="58.182" fill="#D9D9D9" r="1" transform="rotate(168.299 261.181 58.182)"></circle>
            <circle cx="351.844" cy="74.0199" fill="#D9D9D9" r="1.5" transform="rotate(168.299 351.844 74.0199)">
            </circle>
            <circle cx="166.774" cy="69.7728" fill="#D9D9D9" r="1.5" transform="rotate(168.299 166.774 69.7728)">
            </circle>
            <circle cx="184.774" cy="16.7728" fill="#D9D9D9" r="1.5" transform="rotate(168.299 184.774 16.7728)">
            </circle>
            <circle cx="349.763" cy="56.5849" fill="#D9D9D9" r="1" transform="rotate(168.299 349.763 56.5849)"></circle>
            <circle cx="275.181" cy="34.182" fill="#D9D9D9" r="1" transform="rotate(168.299 275.181 34.182)"></circle>
            <circle cx="441.181" cy="44.182" fill="#D9D9D9" r="1" transform="rotate(168.299 441.181 44.182)"></circle>
            <circle cx="463.181" cy="1.18202" fill="#D9D9D9" r="1" transform="rotate(168.299 463.181 1.18202)"></circle>
            <circle cx="362.83" cy="45.7074" fill="#D9D9D9" opacity="0.5" r="1"
                transform="rotate(168.299 362.83 45.7074)"></circle>
            <circle cx="551.181" cy="15.182" fill="#D9D9D9" opacity="0.5" r="1"
                transform="rotate(168.299 551.181 15.182)"></circle>
            <circle cx="341.181" cy="34.8607" fill="#D9D9D9" opacity="0.5" r="1"
                transform="rotate(168.299 341.181 34.8607)"></circle>
        </g>
        <rect fill="url(#paint0_linear_1317_8)" height="16.1624" opacity="0.9" transform="rotate(-45 561 120.571)"
            width="0.808122" x="561" y="120.571"></rect>
        <rect fill="url(#paint1_linear_1317_8)" height="16.1624" opacity="0.9"
            transform="matrix(0.707107 0.707107 0.707107 -0.707107 561 131.429)" width="0.808122"></rect>
        <circle cx="567" cy="126" fill="white" r="0.808122"></circle>
        <rect fill="url(#paint2_linear_1317_8)" height="16.1624" opacity="0.9" transform="rotate(-45 680 221.571)"
            width="0.808122" x="680" y="221.571"></rect>
        <rect fill="url(#paint3_linear_1317_8)" height="16.1624" opacity="0.9"
            transform="matrix(0.707107 0.707107 0.707107 -0.707107 680 232.429)" width="0.808122"></rect>
        <circle cx="686" cy="227" fill="white" r="0.808122"></circle>
        <rect fill="url(#paint4_linear_1317_8)" height="16.1624" opacity="0.9" transform="rotate(-45 391 178.571)"
            width="0.808122" x="391" y="178.571"></rect>
        <rect fill="url(#paint5_linear_1317_8)" height="16.1624" opacity="0.9"
            transform="matrix(0.707107 0.707107 0.707107 -0.707107 391 189.429)" width="0.808122"></rect>
        <circle cx="397" cy="184" fill="white" r="0.808122"></circle>
        <rect fill="url(#paint6_linear_1317_8)" height="8.08122" opacity="0.9" transform="rotate(-45 812 174.286)"
            width="0.404061" x="812" y="174.286"></rect>
        <rect fill="url(#paint7_linear_1317_8)" height="8.08122" opacity="0.9"
            transform="matrix(0.707107 0.707107 0.707107 -0.707107 812 179.714)" width="0.404061"></rect>
        <circle cx="815.002" cy="177" fill="white" r="0.404061"></circle>
        <rect fill="url(#paint8_linear_1317_8)" height="18.8562" opacity="0.9" transform="rotate(-45 220 196.667)"
            width="0.942809" x="220" y="196.667"></rect>
        <rect fill="url(#paint9_linear_1317_8)" height="18.8562" opacity="0.9"
            transform="matrix(0.707107 0.707107 0.707107 -0.707107 220 209.333)" width="0.942809"></rect>
        <circle cx="226.997" cy="202.999" fill="white" r="0.942809"></circle>
        <rect fill="url(#paint10_linear_1317_8)" height="18.8562" opacity="0.9" transform="rotate(-45 824 131.667)"
            width="0.942809" x="824" y="131.667"></rect>
        <rect fill="url(#paint11_linear_1317_8)" height="18.8562" opacity="0.9"
            transform="matrix(0.707107 0.707107 0.707107 -0.707107 824 144.333)" width="0.942809"></rect>
        <circle cx="830.997" cy="137.999" fill="white" r="0.942809"></circle>
        <rect fill="url(#paint12_linear_1317_8)" height="18.8562" opacity="0.9" transform="rotate(-45 336 88.6665)"
            width="0.942809" x="336" y="88.6665"></rect>
        <rect fill="url(#paint13_linear_1317_8)" height="18.8562" opacity="0.9"
            transform="matrix(0.707107 0.707107 0.707107 -0.707107 336 101.333)" width="0.942809"></rect>
        <circle cx="342.997" cy="94.9995" fill="white" r="0.942809"></circle>
    </g>
    <defs>
        <linearGradient gradientUnits="userSpaceOnUse" id="paint0_linear_1317_8" x1="561.404" x2="561.404" y1="120.571"
            y2="136.734">
            <stop stop-color="white" stop-opacity="0"></stop>
            <stop offset="0.5" stop-color="white"></stop>
            <stop offset="1" stop-color="white" stop-opacity="0"></stop>
        </linearGradient>
        <linearGradient gradientUnits="userSpaceOnUse" id="paint1_linear_1317_8" x1="0.404061" x2="0.404061" y1="0"
            y2="16.1624">
            <stop stop-color="white" stop-opacity="0"></stop>
            <stop offset="0.5" stop-color="white"></stop>
            <stop offset="1" stop-color="white" stop-opacity="0"></stop>
        </linearGradient>
        <linearGradient gradientUnits="userSpaceOnUse" id="paint2_linear_1317_8" x1="680.404" x2="680.404" y1="221.571"
            y2="237.734">
            <stop stop-color="white" stop-opacity="0"></stop>
            <stop offset="0.5" stop-color="white"></stop>
            <stop offset="1" stop-color="white" stop-opacity="0"></stop>
        </linearGradient>
        <linearGradient gradientUnits="userSpaceOnUse" id="paint3_linear_1317_8" x1="0.404061" x2="0.404061" y1="0"
            y2="16.1624">
            <stop stop-color="white" stop-opacity="0"></stop>
            <stop offset="0.5" stop-color="white"></stop>
            <stop offset="1" stop-color="white" stop-opacity="0"></stop>
        </linearGradient>
        <linearGradient gradientUnits="userSpaceOnUse" id="paint4_linear_1317_8" x1="391.404" x2="391.404" y1="178.571"
            y2="194.734">
            <stop stop-color="white" stop-opacity="0"></stop>
            <stop offset="0.5" stop-color="white"></stop>
            <stop offset="1" stop-color="white" stop-opacity="0"></stop>
        </linearGradient>
        <linearGradient gradientUnits="userSpaceOnUse" id="paint5_linear_1317_8" x1="0.404061" x2="0.404061" y1="0"
            y2="16.1624">
            <stop stop-color="white" stop-opacity="0"></stop>
            <stop offset="0.5" stop-color="white"></stop>
            <stop offset="1" stop-color="white" stop-opacity="0"></stop>
        </linearGradient>
        <linearGradient gradientUnits="userSpaceOnUse" id="paint6_linear_1317_8" x1="812.202" x2="812.202" y1="174.286"
            y2="182.367">
            <stop stop-color="white" stop-opacity="0"></stop>
            <stop offset="0.5" stop-color="white"></stop>
            <stop offset="1" stop-color="white" stop-opacity="0"></stop>
        </linearGradient>
        <linearGradient gradientUnits="userSpaceOnUse" id="paint7_linear_1317_8" x1="0.202031" x2="0.202031" y1="0"
            y2="8.08122">
            <stop stop-color="white" stop-opacity="0"></stop>
            <stop offset="0.5" stop-color="white"></stop>
            <stop offset="1" stop-color="white" stop-opacity="0"></stop>
        </linearGradient>
        <linearGradient gradientUnits="userSpaceOnUse" id="paint8_linear_1317_8" x1="220.471" x2="220.471" y1="196.667"
            y2="215.523">
            <stop stop-color="white" stop-opacity="0"></stop>
            <stop offset="0.5" stop-color="white"></stop>
            <stop offset="1" stop-color="white" stop-opacity="0"></stop>
        </linearGradient>
        <linearGradient gradientUnits="userSpaceOnUse" id="paint9_linear_1317_8" x1="0.471405" x2="0.471405" y1="0"
            y2="18.8562">
            <stop stop-color="white" stop-opacity="0"></stop>
            <stop offset="0.5" stop-color="white"></stop>
            <stop offset="1" stop-color="white" stop-opacity="0"></stop>
        </linearGradient>
        <linearGradient gradientUnits="userSpaceOnUse" id="paint10_linear_1317_8" x1="824.471" x2="824.471" y1="131.667"
            y2="150.523">
            <stop stop-color="white" stop-opacity="0"></stop>
            <stop offset="0.5" stop-color="white"></stop>
            <stop offset="1" stop-color="white" stop-opacity="0"></stop>
        </linearGradient>
        <linearGradient gradientUnits="userSpaceOnUse" id="paint11_linear_1317_8" x1="0.471405" x2="0.471405" y1="0"
            y2="18.8562">
            <stop stop-color="white" stop-opacity="0"></stop>
            <stop offset="0.5" stop-color="white"></stop>
            <stop offset="1" stop-color="white" stop-opacity="0"></stop>
        </linearGradient>
        <linearGradient gradientUnits="userSpaceOnUse" id="paint12_linear_1317_8" x1="336.471" x2="336.471" y1="88.6665"
            y2="107.523">
            <stop stop-color="white" stop-opacity="0"></stop>
            <stop offset="0.5" stop-color="white"></stop>
            <stop offset="1" stop-color="white" stop-opacity="0"></stop>
        </linearGradient>
        <linearGradient gradientUnits="userSpaceOnUse" id="paint13_linear_1317_8" x1="0.471405" x2="0.471405" y1="0"
            y2="18.8562">
            <stop stop-color="white" stop-opacity="0"></stop>
            <stop offset="0.5" stop-color="white"></stop>
            <stop offset="1" stop-color="white" stop-opacity="0"></stop>
        </linearGradient>
    </defs>
</svg>